<svg width="36" height="25" viewBox="0 0 36 25" fill="none" xmlns="http://www.w3.org/2000/svg">
<path fill-rule="evenodd" clip-rule="evenodd" d="M1.21694 8.46953C0.405684 10.3745 0 12.6532 0 15.3062C0 17.8913 0.709884 20.1705 2.12962 22.1429C3.54928 24.0479 5.54364 25.0001 8.11271 25.0001C10.4113 25.0001 12.2366 24.2521 13.5887 22.7551C15.0085 21.1907 15.7184 19.3878 15.7184 17.347C15.7184 15.3062 15.0423 13.5375 13.6902 12.041C12.3381 10.4766 10.6479 9.6939 8.6198 9.6939C8.21412 9.6939 7.84217 9.7281 7.50424 9.79603C7.2338 9.86392 6.99714 9.93232 6.79435 10.0002C6.52392 10.0681 6.28726 10.1361 6.08447 10.2045C6.3549 8.16368 7.2338 6.56505 8.72107 5.40858C10.276 4.1837 11.9324 3.57152 13.6902 3.57152V0C12.0677 0 10.4113 0.30635 8.72107 0.918525C7.09855 1.4628 5.64512 2.38133 4.36064 3.67362C3.07606 4.898 2.02824 6.49665 1.21694 8.46953ZM21.4986 8.46953C20.6874 10.3745 20.2817 12.6532 20.2817 15.3062C20.2817 17.8913 20.9916 20.1705 22.4113 22.1429C23.8311 24.0479 25.8254 25.0001 28.3944 25.0001C30.693 25.0001 32.5184 24.2521 33.8704 22.7551C35.2902 21.1907 36 19.3878 36 17.347C36 15.3062 35.324 13.5375 33.9719 12.041C32.6198 10.4766 30.9296 9.6939 28.9015 9.6939C28.4958 9.6939 28.124 9.7281 27.786 9.79603C27.5156 9.86392 27.2789 9.93232 27.0761 10.0002C26.8057 10.0681 26.569 10.1361 26.3663 10.2045C26.6367 8.16368 27.5156 6.56505 29.0029 5.40858C30.5578 4.1837 32.2142 3.57152 33.9719 3.57152V0C32.3493 0 30.6931 0.30635 29.0029 0.918525C27.3803 1.4628 25.9268 2.38133 24.6423 3.67362C23.3578 4.898 22.3099 6.49665 21.4986 8.46953Z" fill="#5E3CC1"/>
</svg>
