<svg display="none"   fill="none" xmlns="http://www.w3.org/2000/svg">
    <symbol id="logo_svg" viewBox="0 0 110 23"> 
        <g>
            <path d="M22.0355 8.53788C22.3909 7.66667 23.1018 6.9697 23.8126 6.44697C24.5234 5.92424 25.4119 5.75 26.4782 5.75C27.3667 5.75 28.0775 5.92424 28.6107 6.27273C29.1438 6.62121 29.8546 6.9697 30.21 7.49242V5.92424H33.7641V17.5985H30.21V15.8561C29.8546 16.3788 29.3215 16.9015 28.7884 17.25C28.2552 17.5985 27.3667 17.7727 26.6559 17.7727C25.7674 17.7727 24.8788 17.5985 23.9903 17.0758C23.1018 16.3788 22.3909 15.6818 22.0355 14.8106C21.5024 13.9394 21.3247 12.8939 21.3247 11.6742C21.3247 10.4545 21.5024 9.40909 22.0355 8.53788ZM29.4992 9.58333C28.9661 9.06061 28.4329 8.88636 27.7221 8.88636C27.0113 8.88636 26.3005 9.06061 25.9451 9.58333C25.4119 10.1061 25.2342 10.803 25.2342 11.6742C25.2342 12.5455 25.4119 13.2424 25.9451 13.7652C26.4782 14.2879 27.0113 14.6364 27.7221 14.6364C28.4329 14.6364 29.1438 14.4621 29.4992 13.9394C29.8546 13.2424 30.21 12.5455 30.21 11.6742C30.21 10.803 29.8546 10.1061 29.4992 9.58333Z"/>
            <path d="M41.761 6.27273C42.4718 5.92424 43.1826 5.75 43.8934 5.75V9.58333H42.8272C41.9387 9.58333 41.2278 9.75758 40.6947 10.1061C40.1616 10.4545 39.9839 11.1515 39.9839 12.197V17.5985H36.2521V5.92424H39.9839V7.84091C40.517 7.14394 41.0501 6.62121 41.761 6.27273Z" />
            <path d="M57.7544 5.92426L50.2908 23.1743H46.3813L49.0468 17.25L44.2488 5.92426H48.336L51.0016 13.2424L53.6672 5.92426H57.7544Z" />
            <path d="M67.1728 13.5909C67.1728 14.9848 66.8174 16.0303 66.1066 16.7273C65.3958 17.4242 64.3295 17.5985 63.0856 17.5985H61.6639V14.6364H62.5525C62.9079 14.6364 63.2633 14.6364 63.441 14.4621C63.6187 14.2879 63.6187 14.1136 63.6187 13.7651V0.69696H67.3505V13.5909H67.1728Z" />
            <path d="M69.8385 8.53788C70.3716 7.66667 70.9047 6.9697 71.7933 6.44697C72.5041 5.92424 73.3926 5.75 74.4589 5.75C75.3474 5.75 76.0582 5.92424 76.5913 6.27273C77.1244 6.62121 77.6576 6.9697 78.013 7.66667V5.92424H81.7448V17.5985H78.013V15.8561C77.6576 16.3788 77.1244 16.9015 76.5913 17.25C76.0582 17.5985 75.1697 17.7727 74.4589 17.7727C73.5703 17.7727 72.6818 17.5985 71.7933 17.0758C71.0825 16.553 70.3716 15.8561 69.8385 14.9848C69.3054 13.9394 69.1277 12.8939 69.1277 11.6742C69.1277 10.4545 69.3054 9.40909 69.8385 8.53788ZM77.3022 9.58333C76.769 9.06061 76.2359 8.88636 75.5251 8.88636C74.8143 8.88636 74.1034 9.06061 73.748 9.58333C73.0372 10.1061 72.8595 10.803 72.8595 11.6742C72.8595 12.5455 73.0372 13.2424 73.5703 13.7652C74.1035 14.2879 74.6366 14.6364 75.3474 14.6364C76.0582 14.6364 76.769 14.4621 77.1245 13.9394C77.6576 13.4167 77.8353 12.7197 77.8353 11.8485C78.013 10.803 77.8353 10.1061 77.3022 9.58333Z" />
            <path d="M94.8951 7.14393C95.7836 8.01514 96.139 9.23484 96.139 10.803V17.7727H92.5849V11.1515C92.5849 10.4545 92.4072 9.75756 92.0518 9.40908C91.5186 8.88635 90.9855 8.71211 90.2747 8.71211C89.5639 8.71211 89.0308 8.88635 88.6753 9.40908C88.3199 9.75756 88.1422 10.4545 88.1422 11.1515V17.4242H84.4104V5.92423H88.1422V7.49241C88.3199 6.96968 88.8531 6.44696 89.5639 6.09847C90.2747 5.74999 90.8078 5.57574 91.6963 5.57574C92.9403 5.74999 94.1842 6.09847 94.8951 7.14393Z"/>
            <path d="M109.822 12.5455H101.648C101.648 13.2424 102.003 13.7652 102.359 14.2879C102.714 14.8106 103.247 14.8106 103.958 14.8106C104.847 14.8106 105.557 14.4621 105.913 13.7652H109.822C109.645 14.4621 109.289 15.1591 108.756 15.8561C108.223 16.553 107.512 16.9015 106.801 17.25C106.091 17.5985 105.202 17.7727 104.136 17.7727C102.892 17.7727 102.003 17.5985 100.937 17.0758C100.049 16.553 99.3377 15.8561 98.8046 14.9849C98.2715 14.1137 98.0938 13.0682 98.0938 11.8485C98.0938 10.6288 98.2715 9.58335 98.8046 8.71213C99.3377 7.84092 100.049 7.14395 100.937 6.62122C101.826 6.0985 102.892 5.92426 104.136 5.92426C105.202 5.92426 106.268 6.0985 107.157 6.62122C108.045 7.14395 108.756 7.84092 109.289 8.71213C109.822 9.58335 110 10.6288 110 11.8485C110 11.8485 110 12.197 109.822 12.5455ZM106.268 10.6288C106.268 9.93183 106.091 9.58335 105.557 9.23486C105.202 8.88638 104.669 8.71213 103.958 8.71213C103.425 8.71213 102.892 8.88638 102.359 9.23486C102.003 9.58335 101.648 10.1061 101.648 10.803H106.268V10.6288Z" />
            <path d="M9.77383 2.9621C9.77383 -1.21971 0 -1.5682 0 5.74998V17.5985H3.55412V6.27271C3.55412 5.57574 3.73183 4.87877 4.08724 4.53029C4.44265 4.1818 4.97577 3.83332 5.68659 3.83332C6.39741 3.83332 7.10824 4.00756 7.64136 4.53029C7.99677 4.87877 8.17447 5.57574 8.17447 6.27271V17.5985H9.77383H11.3732V6.27271C11.3732 5.57574 11.5509 4.87877 11.9063 4.53029C12.2617 4.1818 12.7948 3.83332 13.5057 3.83332C14.2165 3.83332 14.7496 4.00756 15.105 4.53029C15.4604 4.87877 15.6381 5.57574 15.6381 6.27271V17.5985H19.1922V5.74998C19.37 -1.5682 9.77383 -1.21971 9.77383 2.9621Z" />
        </g>
    </symbol>
    <symbol id="search_svg" viewBox="0 0 18 18">
            <g>
            <path d="M8.29907 0C3.70093 0 0 3.70093 0 8.29907C0 12.8411 3.70093 16.5981 8.29907 16.5981C12.8972 16.5981 16.5981 12.8972 16.5981 8.29907C16.5421 3.70093 12.8411 0 8.29907 0ZM8.29907 14.8037C4.71028 14.8037 1.79439 11.8879 1.79439 8.29907C1.79439 4.71028 4.71028 1.79439 8.29907 1.79439C11.8879 1.79439 14.8037 4.71028 14.8037 8.29907C14.8037 11.8879 11.8879 14.8037 8.29907 14.8037Z"/>
            <path d="M16.8785 18C16.5981 18 16.3177 17.8878 16.0934 17.6635L13.2897 14.8598C12.8411 14.4112 12.8411 13.7383 13.2897 13.2897C13.7383 12.8411 14.4112 12.8411 14.8598 13.2897L17.6635 16.0934C18.1121 16.542 18.1121 17.2149 17.6635 17.6635C17.4953 17.9439 17.2149 18 16.8785 18Z"/>
            </g>
    </symbol>
    <symbol id="slick__left-arrow_svg" viewBox="0 0 10 16">
            <g>
            <path fill-rule="evenodd" clip-rule="evenodd" d="M9.59912 0.478912C9.03539 -0.127904 8.08633 -0.163072 7.47922 0.400736L0.47921 6.9008C0.17365 7.18418 -7e-05 7.58286 -7e-05 7.99962C-7e-05 8.41686 0.17365 8.81506 0.47921 9.09891L7.47922 15.599C8.08633 16.1628 9.03539 16.1276 9.59912 15.5203C10.1629 14.9135 10.1277 13.9642 9.52061 13.4004L3.70438 7.99962L9.52061 2.59886C10.1277 2.03504 10.1629 1.08622 9.59912 0.478912Z" />
            </g>
    </symbol>
    <symbol id="slick__right-arrow_svg" viewBox="0 0 10 16">
            <g>
           <path fill-rule="evenodd" clip-rule="evenodd" d="M0.40075 0.478912C0.96449 -0.127904 1.91354 -0.163072 2.52065 0.400736L9.52066 6.9008C9.82633 7.18418 9.99994 7.58286 9.99994 7.99962C9.99994 8.41686 9.82633 8.81506 9.52066 9.09891L2.52065 15.599C1.91354 16.1628 0.96449 16.1276 0.40075 15.5203C-0.16299 14.9135 -0.12774 13.9642 0.47926 13.4004L6.29549 7.99962L0.47926 2.59886C-0.12774 2.03504 -0.16299 1.08622 0.40075 0.478912Z"/>
            </g>
    </symbol>
    <symbol id="svg_close_icon" viewBox="0 0 24 24">
        <path d="M12 22C17.5 22 22 17.5 22 12C22 6.5 17.5 2 12 2C6.5 2 2 6.5 2 12C2 17.5 6.5 22 12 22Z" stroke="#292D32" stroke-width="1.5" stroke-linecap="round" stroke-linejoin="round"/>
        <path d="M9.16998 14.83L14.83 9.17004" stroke="#292D32" stroke-width="1.5" stroke-linecap="round" stroke-linejoin="round"/>
        <path d="M14.83 14.83L9.16998 9.17004" stroke="#292D32" stroke-width="1.5" stroke-linecap="round" stroke-linejoin="round"/>
    </symbol>
    <symbol id="svg_subscrbe__right_arr" viewBox="0 0 29 14" >
        <g>
            <path fill-rule="evenodd" clip-rule="evenodd" d="M24.5861 7.70685H0V5.7071H24.5857L20.2929 1.41394L21.707 0L28.4142 6.70722L21.707 13.4139L20.2929 12L24.5861 7.70685Z"/>
        </g>  
    </symbol>
    <symbol id="svg_video__play-btn"  viewBox="0 0 140 140" >
        <g>
            <path opacity="0.65" fill-rule="evenodd" clip-rule="evenodd" d="M70 139.999C31.2899 139.999 0 108.71 0 69.9997C0 31.2894 31.2899 -0.00056 70 -0.00056C108.71 -0.00056 140 31.2894 140 69.9997C140 108.71 108.71 139.999 70 139.999Z"  fill-opacity="0.34"/>
            <path fill="#D9D9D9"  d="M51 44.2938C51 40.3102 55.4311 37.9262 58.7553 40.1214L97.6819 65.8277C100.675 67.8041 100.675 72.1959 97.6819 74.1723L58.7553 99.8786C55.4311 102.074 51 99.6898 51 95.7062V44.2938Z" fill-opacity="0.65"/>
        </g>  
    </symbol>
</svg>
