<svg xmlns="http://www.w3.org/2000/svg" xmlns:xlink="http://www.w3.org/1999/xlink" viewBox="0 0 1277.97 360.76" id="bg-svg">
  <defs>
    <style>
      .cls-1 {
        isolation: isolate;
      }

      .cls-2 {
        mix-blend-mode: color-dodge;
      }

      .cls-10,
      .cls-11,
      .cls-12,
      .cls-13,
      .cls-14,
      .cls-15,
      .cls-16,
      .cls-17,
      .cls-18,
      .cls-19,
      .cls-20,
      .cls-21,
      .cls-22,
      .cls-23,
      .cls-24,
      .cls-25,
      .cls-26,
      .cls-27,
      .cls-28,
      .cls-29,
      .cls-3,
      .cls-30,
      .cls-31,
      .cls-32,
      .cls-33,
      .cls-34,
      .cls-35,
      .cls-36,
      .cls-37,
      .cls-38,
      .cls-39,
      .cls-4,
      .cls-40,
      .cls-41,
      .cls-42,
      .cls-43,
      .cls-44,
      .cls-45,
      .cls-46,
      .cls-47,
      .cls-48,
      .cls-49,
      .cls-5,
      .cls-50,
      .cls-51,
      .cls-52,
      .cls-53,
      .cls-54,
      .cls-55,
      .cls-56,
      .cls-57,
      .cls-58,
      .cls-59,
      .cls-6,
      .cls-60,
      .cls-61,
      .cls-62,
      .cls-63,
      .cls-64,
      .cls-65,
      .cls-66,
      .cls-67,
      .cls-68,
      .cls-69,
      .cls-7,
      .cls-70,
      .cls-71,
      .cls-72,
      .cls-73,
      .cls-74,
      .cls-75,
      .cls-76,
      .cls-77,
      .cls-78,
      .cls-79,
      .cls-8,
      .cls-80,
      .cls-81,
      .cls-82,
      .cls-83,
      .cls-84,
      .cls-85,
      .cls-86,
      .cls-87,
      .cls-88,
      .cls-9 {
        fill: none;
        stroke-miterlimit: 10;
      }

      .cls-3 {
        stroke: #1d1331;
        stroke-width: 1.29px;
      }

      .cls-4 {
        stroke: #251339;
      }

      .cls-10,
      .cls-11,
      .cls-12,
      .cls-13,
      .cls-14,
      .cls-15,
      .cls-16,
      .cls-17,
      .cls-18,
      .cls-19,
      .cls-20,
      .cls-21,
      .cls-22,
      .cls-23,
      .cls-24,
      .cls-4,
      .cls-46,
      .cls-47,
      .cls-48,
      .cls-49,
      .cls-5,
      .cls-50,
      .cls-51,
      .cls-52,
      .cls-53,
      .cls-54,
      .cls-55,
      .cls-56,
      .cls-57,
      .cls-58,
      .cls-59,
      .cls-6,
      .cls-60,
      .cls-61,
      .cls-62,
      .cls-63,
      .cls-64,
      .cls-65,
      .cls-66,
      .cls-67,
      .cls-68,
      .cls-69,
      .cls-7,
      .cls-70,
      .cls-71,
      .cls-72,
      .cls-73,
      .cls-74,
      .cls-75,
      .cls-76,
      .cls-77,
      .cls-78,
      .cls-79,
      .cls-8,
      .cls-80,
      .cls-81,
      .cls-82,
      .cls-83,
      .cls-84,
      .cls-85,
      .cls-86,
      .cls-87,
      .cls-88,
      .cls-9 {
        stroke-linecap: round;
      }

      .cls-4,
      .cls-45 {
        stroke-width: 1.29px;
        stroke-dasharray: 14.35 0.51;
      }

      .cls-5 {
        stroke: #2c1442;
      }

      .cls-44,
      .cls-5 {
        stroke-width: 1.29px;
        stroke-dasharray: 13.83 1.03;
      }

      .cls-6 {
        stroke: #34144a;
      }

      .cls-43,
      .cls-6 {
        stroke-width: 1.3px;
        stroke-dasharray: 13.32 1.54;
      }

      .cls-7 {
        stroke: #3b1553;
      }

      .cls-42,
      .cls-7 {
        stroke-width: 1.3px;
        stroke-dasharray: 12.81 2.06;
      }

      .cls-8 {
        stroke: #43155b;
      }

      .cls-41,
      .cls-8 {
        stroke-width: 1.3px;
        stroke-dasharray: 12.29 2.57;
      }

      .cls-9 {
        stroke: #4a1663;
      }

      .cls-40,
      .cls-9 {
        stroke-width: 1.31px;
        stroke-dasharray: 11.78 3.09;
      }

      .cls-10 {
        stroke: #52166c;
      }

      .cls-10,
      .cls-39 {
        stroke-width: 1.31px;
        stroke-dasharray: 11.26 3.6;
      }

      .cls-11 {
        stroke: #5a1674;
      }

      .cls-11,
      .cls-38 {
        stroke-width: 1.31px;
        stroke-dasharray: 10.75 4.12;
      }

      .cls-12 {
        stroke: #61177c;
      }

      .cls-12,
      .cls-37 {
        stroke-width: 1.31px;
        stroke-dasharray: 10.23 4.63;
      }

      .cls-13 {
        stroke: #691785;
      }

      .cls-13,
      .cls-36 {
        stroke-width: 1.32px;
        stroke-dasharray: 9.72 5.15;
      }

      .cls-14 {
        stroke: #70188d;
      }

      .cls-14,
      .cls-35 {
        stroke-width: 1.32px;
        stroke-dasharray: 9.2 5.66;
      }

      .cls-15 {
        stroke: #781896;
      }

      .cls-15,
      .cls-34 {
        stroke-width: 1.32px;
        stroke-dasharray: 8.69 6.18;
      }

      .cls-16 {
        stroke: #7f199e;
      }

      .cls-16,
      .cls-33 {
        stroke-width: 1.33px;
        stroke-dasharray: 8.17 6.69;
      }

      .cls-17 {
        stroke: #8719a6;
      }

      .cls-17,
      .cls-32 {
        stroke-width: 1.33px;
        stroke-dasharray: 7.66 7.21;
      }

      .cls-18 {
        stroke: #8f19af;
      }

      .cls-18,
      .cls-31 {
        stroke-width: 1.33px;
        stroke-dasharray: 7.14 7.72;
      }

      .cls-19 {
        stroke: #961ab7;
      }

      .cls-19,
      .cls-30 {
        stroke-width: 1.34px;
        stroke-dasharray: 6.63 8.24;
      }

      .cls-20 {
        stroke: #9e1abf;
      }

      .cls-20,
      .cls-29 {
        stroke-width: 1.34px;
        stroke-dasharray: 6.11 8.75;
      }

      .cls-21 {
        stroke: #a51bc8;
      }

      .cls-21,
      .cls-28 {
        stroke-width: 1.34px;
        stroke-dasharray: 5.6 9.27;
      }

      .cls-22 {
        stroke: #ad1bd0;
      }

      .cls-22,
      .cls-27 {
        stroke-width: 1.35px;
        stroke-dasharray: 5.08 9.78;
      }

      .cls-23 {
        stroke: #b41cd9;
      }

      .cls-23,
      .cls-26 {
        stroke-width: 1.35px;
        stroke-dasharray: 4.57 10.3;
      }

      .cls-24 {
        stroke: #bc1ce1;
      }

      .cls-24,
      .cls-25,
      .cls-88 {
        stroke-width: 1.35px;
      }

      .cls-24,
      .cls-25 {
        stroke-dasharray: 4.05 10.81;
      }

      .cls-25 {
        stroke: #2385b6;
      }

      .cls-26 {
        stroke: #2380b0;
      }

      .cls-27 {
        stroke: #227aa9;
      }

      .cls-28 {
        stroke: #2275a3;
      }

      .cls-29 {
        stroke: #226f9d;
      }

      .cls-30 {
        stroke: #226a96;
      }

      .cls-31 {
        stroke: #216490;
      }

      .cls-32 {
        stroke: #215f8a;
      }

      .cls-33 {
        stroke: #215a83;
      }

      .cls-34 {
        stroke: #20547d;
      }

      .cls-35 {
        stroke: #204f77;
      }

      .cls-36 {
        stroke: #204970;
      }

      .cls-37 {
        stroke: #20446a;
      }

      .cls-38 {
        stroke: #1f3e64;
      }

      .cls-39 {
        stroke: #1f395d;
      }

      .cls-40 {
        stroke: #1f3457;
      }

      .cls-41 {
        stroke: #1e2e51;
      }

      .cls-42 {
        stroke: #1e294a;
      }

      .cls-43 {
        stroke: #1e2344;
      }

      .cls-44 {
        stroke: #1e1e3e;
      }

      .cls-45 {
        stroke: #1d1837;
      }

      .cls-46,
      .cls-47 {
        stroke: #21005b;
        stroke-width: 0.99px;
      }

      .cls-47 {
        stroke-dasharray: 0 4.05;
      }

      .cls-48,
      .cls-49,
      .cls-50 {
        stroke-width: 1px;
      }

      .cls-48 {
        stroke: url(#linear-gradient);
      }

      .cls-49 {
        stroke-dasharray: 0.19 3.86;
        stroke: url(#linear-gradient-2);
      }

      .cls-50 {
        stroke: url(#linear-gradient-3);
      }

      .cls-51,
      .cls-52,
      .cls-53 {
        stroke-width: 1.02px;
      }

      .cls-51 {
        stroke: url(#linear-gradient-4);
      }

      .cls-52 {
        stroke-dasharray: 0.39 3.66;
        stroke: url(#linear-gradient-5);
      }

      .cls-53 {
        stroke: url(#linear-gradient-6);
      }

      .cls-54,
      .cls-55,
      .cls-56 {
        stroke-width: 1.04px;
      }

      .cls-54 {
        stroke: url(#linear-gradient-7);
      }

      .cls-55 {
        stroke-dasharray: 0.58 3.48;
        stroke: url(#linear-gradient-8);
      }

      .cls-56 {
        stroke: url(#linear-gradient-9);
      }

      .cls-57,
      .cls-58,
      .cls-59 {
        stroke-width: 1.06px;
      }

      .cls-57 {
        stroke: url(#linear-gradient-10);
      }

      .cls-58 {
        stroke-dasharray: 0.77 3.28;
        stroke: url(#linear-gradient-11);
      }

      .cls-59 {
        stroke: url(#linear-gradient-12);
      }

      .cls-60,
      .cls-61,
      .cls-62 {
        stroke-width: 1.07px;
      }

      .cls-60 {
        stroke: url(#linear-gradient-13);
      }

      .cls-61 {
        stroke-dasharray: 0.96 3.09;
        stroke: url(#linear-gradient-14);
      }

      .cls-62 {
        stroke: url(#linear-gradient-15);
      }

      .cls-63,
      .cls-64,
      .cls-65 {
        stroke-width: 1.09px;
      }

      .cls-63 {
        stroke: url(#linear-gradient-16);
      }

      .cls-64 {
        stroke-dasharray: 1.16 2.89;
        stroke: url(#linear-gradient-17);
      }

      .cls-65 {
        stroke: url(#linear-gradient-18);
      }

      .cls-66,
      .cls-67,
      .cls-68 {
        stroke-width: 1.11px;
      }

      .cls-66 {
        stroke: url(#linear-gradient-19);
      }

      .cls-67 {
        stroke-dasharray: 1.35 2.7;
        stroke: url(#linear-gradient-20);
      }

      .cls-68 {
        stroke: url(#linear-gradient-21);
      }

      .cls-69,
      .cls-70,
      .cls-71 {
        stroke-width: 1.13px;
      }

      .cls-69 {
        stroke: url(#linear-gradient-22);
      }

      .cls-70 {
        stroke-dasharray: 1.55 2.51;
        stroke: url(#linear-gradient-23);
      }

      .cls-71 {
        stroke: url(#linear-gradient-24);
      }

      .cls-72,
      .cls-73,
      .cls-74 {
        stroke-width: 1.14px;
      }

      .cls-72 {
        stroke: url(#linear-gradient-25);
      }

      .cls-73 {
        stroke-dasharray: 1.74 2.32;
        stroke: url(#linear-gradient-26);
      }

      .cls-74 {
        stroke: url(#linear-gradient-27);
      }

      .cls-75,
      .cls-76,
      .cls-77 {
        stroke-width: 1.16px;
      }

      .cls-75 {
        stroke: url(#linear-gradient-28);
      }

      .cls-76 {
        stroke-dasharray: 1.93 2.12;
        stroke: url(#linear-gradient-29);
      }

      .cls-77 {
        stroke: url(#linear-gradient-30);
      }

      .cls-78 {
        stroke-width: 1.18px;
        stroke-dasharray: 2.12 1.93;
        stroke: url(#linear-gradient-31);
      }

      .cls-79 {
        stroke-width: 1.19px;
        stroke-dasharray: 2.32 1.74;
        stroke: url(#linear-gradient-32);
      }

      .cls-80 {
        stroke-width: 1.21px;
        stroke-dasharray: 2.51 1.54;
        stroke: url(#linear-gradient-33);
      }

      .cls-81 {
        stroke-width: 1.23px;
        stroke-dasharray: 2.7 1.35;
        stroke: url(#linear-gradient-34);
      }

      .cls-82 {
        stroke-width: 1.25px;
        stroke-dasharray: 2.9 1.16;
        stroke: url(#linear-gradient-35);
      }

      .cls-83 {
        stroke-width: 1.26px;
        stroke-dasharray: 3.09 0.97;
        stroke: url(#linear-gradient-36);
      }

      .cls-84 {
        stroke-width: 1.28px;
        stroke-dasharray: 3.28 0.77;
        stroke: url(#linear-gradient-37);
      }

      .cls-85 {
        stroke-width: 1.3px;
        stroke-dasharray: 3.47 0.58;
        stroke: url(#linear-gradient-38);
      }

      .cls-86 {
        stroke-width: 1.32px;
        stroke-dasharray: 3.67 0.39;
        stroke: url(#linear-gradient-39);
      }

      .cls-87 {
        stroke-width: 1.33px;
        stroke-dasharray: 3.86 0.19;
        stroke: url(#linear-gradient-40);
      }

      .cls-88 {
        stroke: url(#linear-gradient-41);
      }
    </style>
    <linearGradient id="linear-gradient" x1="61.55" y1="236.77" x2="1115.24" y2="236.77" gradientUnits="userSpaceOnUse">
      <stop offset="0" stop-color="#28025d" />
      <stop offset="0.23" stop-color="#2a0760" />
      <stop offset="0.43" stop-color="#28025d" />
      <stop offset="0.69" stop-color="#2a0760" />
      <stop offset="1" stop-color="#28025d" />
    </linearGradient>
    <linearGradient id="linear-gradient-2" x1="61.55" y1="180.57" x2="1115.24" y2="180.57" xlink:href="#linear-gradient" />
    <linearGradient id="linear-gradient-3" x1="61.55" y1="249.96" x2="1115.24" y2="249.96" xlink:href="#linear-gradient" />
    <linearGradient id="linear-gradient-4" x1="62.46" y1="232.09" x2="1115.67" y2="232.09" gradientUnits="userSpaceOnUse">
      <stop offset="0" stop-color="#30035e" />
      <stop offset="0.23" stop-color="#330d64" />
      <stop offset="0.43" stop-color="#30035e" />
      <stop offset="0.69" stop-color="#330d64" />
      <stop offset="1" stop-color="#30035e" />
    </linearGradient>
    <linearGradient id="linear-gradient-5" x1="62.46" y1="180.78" x2="1115.67" y2="180.78" xlink:href="#linear-gradient-4" />
    <linearGradient id="linear-gradient-6" x1="62.46" y1="244.18" x2="1115.67" y2="244.18" xlink:href="#linear-gradient-4" />
    <linearGradient id="linear-gradient-7" x1="63.37" y1="227.41" x2="1116.1" y2="227.41" gradientUnits="userSpaceOnUse">
      <stop offset="0" stop-color="#370560" />
      <stop offset="0.23" stop-color="#3c1469" />
      <stop offset="0.43" stop-color="#370560" />
      <stop offset="0.69" stop-color="#3c1469" />
      <stop offset="1" stop-color="#370560" />
    </linearGradient>
    <linearGradient id="linear-gradient-8" x1="63.37" y1="181.02" x2="1116.1" y2="181.02" xlink:href="#linear-gradient-7" />
    <linearGradient id="linear-gradient-9" x1="63.37" y1="238.4" x2="1116.1" y2="238.4" xlink:href="#linear-gradient-7" />
    <linearGradient id="linear-gradient-10" x1="64.28" y1="222.73" x2="1116.53" y2="222.73" gradientUnits="userSpaceOnUse">
      <stop offset="0" stop-color="#3e0762" />
      <stop offset="0.23" stop-color="#441a6d" />
      <stop offset="0.43" stop-color="#3e0762" />
      <stop offset="0.69" stop-color="#441a6d" />
      <stop offset="1" stop-color="#3e0762" />
    </linearGradient>
    <linearGradient id="linear-gradient-11" x1="64.28" y1="181.33" x2="1116.53" y2="181.33" xlink:href="#linear-gradient-10" />
    <linearGradient id="linear-gradient-12" x1="64.28" y1="232.62" x2="1116.53" y2="232.62" xlink:href="#linear-gradient-10" />
    <linearGradient id="linear-gradient-13" x1="65.19" y1="218.04" x2="1116.97" y2="218.04" gradientUnits="userSpaceOnUse">
      <stop offset="0" stop-color="#460863" />
      <stop offset="0.23" stop-color="#4d2172" />
      <stop offset="0.43" stop-color="#460863" />
      <stop offset="0.69" stop-color="#4d2172" />
      <stop offset="1" stop-color="#460863" />
    </linearGradient>
    <linearGradient id="linear-gradient-14" x1="65.19" y1="179.35" x2="1116.97" y2="179.35" xlink:href="#linear-gradient-13" />
    <linearGradient id="linear-gradient-15" x1="65.19" y1="226.85" x2="1116.97" y2="226.85" xlink:href="#linear-gradient-13" />
    <linearGradient id="linear-gradient-16" x1="66.1" y1="213.36" x2="1117.4" y2="213.36" gradientUnits="userSpaceOnUse">
      <stop offset="0" stop-color="#4d0a65" />
      <stop offset="0.23" stop-color="#562776" />
      <stop offset="0.43" stop-color="#4d0a65" />
      <stop offset="0.69" stop-color="#562776" />
      <stop offset="1" stop-color="#4d0a65" />
    </linearGradient>
    <linearGradient id="linear-gradient-17" x1="66.1" y1="175.69" x2="1117.4" y2="175.69" xlink:href="#linear-gradient-16" />
    <linearGradient id="linear-gradient-18" x1="66.1" y1="221.07" x2="1117.4" y2="221.07" xlink:href="#linear-gradient-16" />
    <linearGradient id="linear-gradient-19" x1="67" y1="208.68" x2="1117.83" y2="208.68" gradientUnits="userSpaceOnUse">
      <stop offset="0" stop-color="#540c67" />
      <stop offset="0.23" stop-color="#5f2e7b" />
      <stop offset="0.43" stop-color="#540c67" />
      <stop offset="0.69" stop-color="#5f2e7b" />
      <stop offset="1" stop-color="#540c67" />
    </linearGradient>
    <linearGradient id="linear-gradient-20" x1="67" y1="176.39" x2="1117.83" y2="176.39" xlink:href="#linear-gradient-19" />
    <linearGradient id="linear-gradient-21" x1="67" y1="215.29" x2="1117.83" y2="215.29" xlink:href="#linear-gradient-19" />
    <linearGradient id="linear-gradient-22" x1="67.91" y1="204" x2="1118.27" y2="204" gradientUnits="userSpaceOnUse">
      <stop offset="0" stop-color="#5c0d68" />
      <stop offset="0.23" stop-color="#683580" />
      <stop offset="0.43" stop-color="#5c0d68" />
      <stop offset="0.69" stop-color="#683580" />
      <stop offset="1" stop-color="#5c0d68" />
    </linearGradient>
    <linearGradient id="linear-gradient-23" x1="67.91" y1="177.66" x2="1118.27" y2="177.66" xlink:href="#linear-gradient-22" />
    <linearGradient id="linear-gradient-24" x1="67.91" y1="209.52" x2="1118.27" y2="209.52" xlink:href="#linear-gradient-22" />
    <linearGradient id="linear-gradient-25" x1="68.82" y1="199.32" x2="1118.7" y2="199.32" gradientUnits="userSpaceOnUse">
      <stop offset="0" stop-color="#630f6a" />
      <stop offset="0.23" stop-color="#713b84" />
      <stop offset="0.43" stop-color="#630f6a" />
      <stop offset="0.69" stop-color="#713b84" />
      <stop offset="1" stop-color="#630f6a" />
    </linearGradient>
    <linearGradient id="linear-gradient-26" x1="68.82" y1="179.1" x2="1118.7" y2="179.1" xlink:href="#linear-gradient-25" />
    <linearGradient id="linear-gradient-27" x1="68.82" y1="203.74" x2="1118.7" y2="203.74" xlink:href="#linear-gradient-25" />
    <linearGradient id="linear-gradient-28" x1="69.73" y1="194.63" x2="1119.13" y2="194.63" gradientUnits="userSpaceOnUse">
      <stop offset="0" stop-color="#6a116c" />
      <stop offset="0.23" stop-color="#7a4289" />
      <stop offset="0.43" stop-color="#6a116c" />
      <stop offset="0.69" stop-color="#7a4289" />
      <stop offset="1" stop-color="#6a116c" />
    </linearGradient>
    <linearGradient id="linear-gradient-29" x1="69.73" y1="180.77" x2="1119.13" y2="180.77" xlink:href="#linear-gradient-28" />
    <linearGradient id="linear-gradient-30" x1="69.73" y1="197.97" x2="1119.13" y2="197.97" xlink:href="#linear-gradient-28" />
    <linearGradient id="linear-gradient-31" x1="70.64" y1="182.72" x2="1119.57" y2="182.72" gradientUnits="userSpaceOnUse">
      <stop offset="0" stop-color="#72126d" />
      <stop offset="0.23" stop-color="#82488d" />
      <stop offset="0.43" stop-color="#72126d" />
      <stop offset="0.69" stop-color="#82488d" />
      <stop offset="1" stop-color="#72126d" />
    </linearGradient>
    <linearGradient id="linear-gradient-32" x1="71.55" y1="185.03" x2="1120" y2="185.03" gradientUnits="userSpaceOnUse">
      <stop offset="0" stop-color="#79146f" />
      <stop offset="0.23" stop-color="#8b4f92" />
      <stop offset="0.43" stop-color="#79146f" />
      <stop offset="0.69" stop-color="#8b4f92" />
      <stop offset="1" stop-color="#79146f" />
    </linearGradient>
    <linearGradient id="linear-gradient-33" x1="72.46" y1="187.76" x2="1120.43" y2="187.76" gradientUnits="userSpaceOnUse">
      <stop offset="0" stop-color="#801671" />
      <stop offset="0.23" stop-color="#945596" />
      <stop offset="0.43" stop-color="#801671" />
      <stop offset="0.69" stop-color="#945596" />
      <stop offset="1" stop-color="#801671" />
    </linearGradient>
    <linearGradient id="linear-gradient-34" x1="73.37" y1="190.95" x2="1120.86" y2="190.95" gradientUnits="userSpaceOnUse">
      <stop offset="0" stop-color="#881772" />
      <stop offset="0.23" stop-color="#9d5c9b" />
      <stop offset="0.43" stop-color="#881772" />
      <stop offset="0.69" stop-color="#9d5c9b" />
      <stop offset="1" stop-color="#881772" />
    </linearGradient>
    <linearGradient id="linear-gradient-35" x1="74.28" y1="194.64" x2="1121.3" y2="194.64" gradientUnits="userSpaceOnUse">
      <stop offset="0" stop-color="#8f1974" />
      <stop offset="0.23" stop-color="#a663a0" />
      <stop offset="0.43" stop-color="#8f1974" />
      <stop offset="0.69" stop-color="#a663a0" />
      <stop offset="1" stop-color="#8f1974" />
    </linearGradient>
    <linearGradient id="linear-gradient-36" x1="75.19" y1="198.84" x2="1121.73" y2="198.84" gradientUnits="userSpaceOnUse">
      <stop offset="0" stop-color="#961b76" />
      <stop offset="0.23" stop-color="#af69a4" />
      <stop offset="0.43" stop-color="#961b76" />
      <stop offset="0.69" stop-color="#af69a4" />
      <stop offset="1" stop-color="#961b76" />
    </linearGradient>
    <linearGradient id="linear-gradient-37" x1="76.1" y1="203.52" x2="1122.16" y2="203.52" gradientUnits="userSpaceOnUse">
      <stop offset="0" stop-color="#9e1c77" />
      <stop offset="0.23" stop-color="#b870a9" />
      <stop offset="0.43" stop-color="#9e1c77" />
      <stop offset="0.69" stop-color="#b870a9" />
      <stop offset="1" stop-color="#9e1c77" />
    </linearGradient>
    <linearGradient id="linear-gradient-38" x1="77" y1="208.65" x2="1122.6" y2="208.65" gradientUnits="userSpaceOnUse">
      <stop offset="0" stop-color="#a51e79" />
      <stop offset="0.23" stop-color="#c076ad" />
      <stop offset="0.43" stop-color="#a51e79" />
      <stop offset="0.69" stop-color="#c076ad" />
      <stop offset="1" stop-color="#a51e79" />
    </linearGradient>
    <linearGradient id="linear-gradient-39" x1="77.91" y1="211.98" x2="1123.03" y2="211.98" gradientUnits="userSpaceOnUse">
      <stop offset="0" stop-color="#ac207b" />
      <stop offset="0.23" stop-color="#c97db2" />
      <stop offset="0.43" stop-color="#ac207b" />
      <stop offset="0.69" stop-color="#c97db2" />
      <stop offset="1" stop-color="#ac207b" />
    </linearGradient>
    <linearGradient id="linear-gradient-40" x1="78.82" y1="210.09" x2="1123.46" y2="210.09" gradientUnits="userSpaceOnUse">
      <stop offset="0" stop-color="#b4217c" />
      <stop offset="0.23" stop-color="#d283b6" />
      <stop offset="0.43" stop-color="#b4217c" />
      <stop offset="0.69" stop-color="#d283b6" />
      <stop offset="1" stop-color="#b4217c" />
    </linearGradient>
    <linearGradient id="linear-gradient-41" x1="79.73" y1="208.46" x2="1123.9" y2="208.46" gradientUnits="userSpaceOnUse">
      <stop offset="0" stop-color="#bb237e" />
      <stop offset="0.23" stop-color="#db8abb" />
      <stop offset="0.43" stop-color="#bb237e" />
      <stop offset="0.69" stop-color="#db8abb" />
      <stop offset="1" stop-color="#bb237e" />
    </linearGradient>
  </defs>
  <g class="cls-1">
    <g id="layer2" data-name="layer2">
      <g id="OBJECTS">
        <g class="cls-2">
          <path data-start="0"  class="cls-3" d="M30.85,79.54c60.81,0,123.64,143.91,247.28,139.86S442.31,35,521.36,43.06s111.48,105.4,214.85,105.4S872,304.53,949,304.53s62.83-180.4,188.5-180.4" />
          <path data-start="10"  class="cls-4" d="M31.14,88.45c64.73,0,129.59,126.5,251.59,122.64s161.89-167,242.06-159.32S637,150,740,150s135.38,154.56,215.3,154.56,69.23-175.66,188.92-175.66" />
          <path data-start="20"  class="cls-5" d="M31.42,97.35c68.65,0,135.54,109.1,255.9,105.43S446.93,53.15,528.23,60.48s113,91,215.5,91,135,153,217.77,153,75.64-170.93,189.34-170.93" />
          <path data-start="30"  class="cls-6" d="M31.7,106.26c72.58,0,141.5,91.69,260.22,88.22S449.24,62.25,531.67,69.2,645.37,153,747.48,153,882,304.51,967.74,304.51s82-166.21,189.76-166.21" />
          <path data-start="40"  class="cls-7" d="M32,115.17c76.51,0,147.45,74.28,264.53,71S451.55,71.35,535.1,77.91s114.44,76.57,216.14,76.57,134.13,150,222.74,150S1062.42,143,1164.15,143" />
          <path data-start="50"  class="cls-8" d="M32.26,124.07c80.44,0,153.41,56.88,268.84,53.79S453.86,80.45,538.54,86.62,653.72,156,755,156,888.71,304.5,980.21,304.5s94.85-156.75,190.6-156.75" />
          <path data-start="60"  class="cls-9" d="M32.55,133c84.36,0,159.35,39.47,273.15,36.58S456.17,89.54,542,95.34s115.92,62.15,216.78,62.15,133.29,147,227.69,147,101.25-152,191-152" />
          <path data-start="70"  class="cls-10" d="M32.83,141.88c88.28,0,165.31,22.07,277.46,19.37s148.19-62.61,235.12-57.2,116.67,55,217.11,55S895.4,304.49,992.69,304.49,1100.34,157.2,1184.12,157.2" />
          <path data-start="80"  class="cls-11" d="M33.11,150.79c92.21,0,171.26,4.66,281.78,2.15s145.9-45.2,234-40.18,117.4,47.75,217.43,47.75,132.46,144,232.65,144S1113,161.92,1190.78,161.92" />
          <path data-start="90" class="cls-12" d="M33.39,159.7c96.14,0,177.22-12.75,286.09-15.06s143.62-27.8,232.81-23.16S670.43,162,770,162s132,142.47,235.12,142.47,120.46-137.83,192.27-137.83" />
          <path data-start="100" class="cls-13" d="M33.68,168.6c100.06,0,183.16-30.15,290.4-32.27s141.33-10.39,231.64-6.14,118.89,33.33,218.08,33.33,131.62,141,237.6,141,126.86-133.1,192.69-133.1" />
          <path data-start="110" class="cls-14" d="M34,177.51c104,0,189.12-47.56,294.71-49.49s139.05,7,230.49,10.88S678.78,165,777.56,165s131.2,139.44,240.08,139.44,133.26-128.37,193.1-128.37" />
          <path data-start="120" class="cls-15" d="M34.24,186.42c107.91,0,195.07-65,299-66.7S470,144.14,562.6,147.61,683,166.53,781.31,166.53,912.1,304.46,1023.87,304.46s139.67-123.64,193.53-123.64" />
          <path data-start="130" class="cls-16" d="M34.52,195.32c111.84,0,201-82.37,303.34-83.91S472.34,153.24,566,156.33,687.14,168,785.07,168s130.37,136.41,245,136.41,146.07-118.91,193.94-118.91" />
          <path data-start="140" class="cls-17" d="M34.81,204.23c115.76,0,207-99.78,307.64-101.13s132.21,59.24,227,61.94,121.84,4.5,219.36,4.5,129.95,134.91,247.52,134.91,152.47-114.19,194.36-114.19" />
          <path data-start="150" class="cls-18" d="M35.09,213.13C154.78,213.13,248,96,347.05,94.8s129.92,76.64,225.86,79,122.58-2.7,219.68-2.7,129.53,133.39,250,133.39S1201.46,195,1237.36,195" />
          <path data-start="160" class="cls-19" d="M35.37,222C159,222,254.25,87.45,351.64,86.49s127.64,94.05,224.7,96,123.33-9.91,220-9.91,129.11,131.88,252.47,131.88S1214.1,199.71,1244,199.71" />
          <path data-start="170" class="cls-20" d="M35.65,231C163.19,231,260.49,79,356.24,78.18s125.35,111.46,223.54,113,124.06-17.12,220.33-17.12,128.7,130.37,254.95,130.37,171.68-100,195.62-100" />
          <path data-start="180" class="cls-21" d="M35.94,239.85c131.46,0,230.78-169.4,324.89-170s123.07,128.86,222.39,130S708,175.57,803.87,175.57s128.28,128.86,257.42,128.86,178.09-95.27,196-95.27" />
          <path data-start="190" class="cls-22" d="M36.22,248.76C171.61,248.76,273,62,365.43,61.57s120.78,146.26,221.22,147,125.55-31.54,221-31.54,127.86,127.35,259.9,127.35S1252,213.88,1264,213.88" />
          <path data-start="200" class="cls-23" d="M36.5,257.67C175.82,257.67,279.19,53.45,370,53.26s118.5,163.67,220.07,164.06,126.29-38.74,221.3-38.74,127.44,125.83,262.38,125.83,190.89-85.8,196.87-85.8" />
          <path data-start="210" class="cls-24" d="M36.78,266.57C180,266.57,285.43,45,374.61,45S490.83,226,593.53,226s127-45.94,221.62-45.94,127,124.32,264.85,124.32,197.3-81.08,197.3-81.08" />
        </g>
        <g class="cls-2" >
          <path data-start="0" class="cls-25" d="M1128,77.39c-106.76,0-139.19,195.94-304.05,195.94S599.61,165.22,451,165.22s-278.37,104-394.58,104" />
          <path data-start="10" class="cls-26" d="M1128.85,83.18c-91,.77-129.59,128.39-235.69,172.93a187.21,187.21,0,0,1-71.28,14.41c-107.74,1.1-172.1-43.08-244.88-73.42-37.53-15.68-78.06-28-128.59-28.5-78.31-.74-151.85,26.29-220.62,52.46-63.68,24.23-121.85,47.57-174.08,47.57" />
          <path data-start="20" class="cls-27" d="M1129.71,89C1036.88,90.51,997.08,208.85,891,253a194.38,194.38,0,0,1-71.19,14.74c-106.76,2.19-172.61-39.16-245.31-67.83-37.45-14.81-78.22-27-128.67-27.92-78.12-1.47-152,23.53-220.78,48.53C159.12,244.47,100.66,268,51,268" />
          <path data-start="30" class="cls-28" d="M1130.58,94.76C1036,97.08,994.9,206.13,888.87,249.86a202.55,202.55,0,0,1-71.08,15.06C712,268.2,644.67,229.68,572,202.69c-37.35-13.94-78.37-25.91-128.73-27.35-77.94-2.2-152.19,20.73-221,44.59-68.23,23.69-127,47.41-174,47.41" />
          <path data-start="40" class="cls-29" d="M1131.45,100.55C1035,103.64,992.72,203.41,886.73,246.73a210.82,210.82,0,0,1-71,15.38c-104.82,4.38-173.63-31.31-246.19-56.62-37.27-13.08-78.54-24.86-128.81-26.77C363,175.78,288.35,196.6,219.61,219.37,149.09,242.74,90.1,266.7,45.7,266.7" />
          <path data-start="50" class="cls-30" d="M1132.32,106.34c-98.23,3.86-141.78,94.34-247.74,137.26a220.12,220.12,0,0,1-70.89,15.71c-103.84,5.47-174.13-27.39-246.62-51-37.19-12.22-78.7-23.8-128.88-26.2-77.58-3.67-152.62,15-221.3,36.72-72.84,23-132.08,47.25-173.86,47.25" />
          <path data-start="60" class="cls-31" d="M1133.19,112.13c-100,4.64-144.83,85.83-250.75,128.35a231,231,0,0,1-70.79,16C708.78,263.07,637,233.05,564.58,211.09c-37.09-11.36-78.86-22.75-129-25.62-77.39-4.41-152.85,12.08-221.47,32.78C139,240.91,79.53,265.41,40.35,265.41" />
          <path data-start="70" class="cls-32" d="M1134.06,117.93c-101.84,5.4-147.88,77.31-253.76,119.42a240.6,240.6,0,0,1-70.7,16.35c-101.88,7.88-175.15-19.53-247.5-39.82-37-10.49-79-21.69-129-25C355.87,183.7,280,198,211.43,217.69,133.94,240,74.25,264.77,37.68,264.77" />
          <path data-start="80" class="cls-33" d="M1134.93,123.72C1031.29,129.89,984,192.51,878.15,234.23a253.63,253.63,0,0,1-70.6,16.67c-100.89,9-175.66-15.61-247.94-34.22-36.91-9.62-79.17-20.63-129.09-24.47-77-5.87-153.35,6.17-221.81,24.91C128.87,239,69,264.13,35,264.13" />
          <path data-start="90" class="cls-34" d="M1135.79,129.51c-105.43,7-154,60.28-259.78,101.59a267.06,267.06,0,0,1-70.51,17c-99.91,10.09-176.16-11.68-248.37-28.61C520.3,210.72,477.79,199.9,428,195.59c-76.85-6.61-153.62,3.17-222,21C123.79,238,63.68,263.48,32.34,263.48" />
          <path data-start="100" class="cls-35" d="M1136.66,135.3c-107.23,7.72-157,51.77-262.8,92.68a283.47,283.47,0,0,1-70.4,17.31c-98.94,11.19-176.68-7.76-248.82-23-36.74-7.9-79.49-18.53-129.23-23.32-76.66-7.34-153.88.14-222.15,17C118.71,236.92,58.4,262.84,29.67,262.84" />
          <path data-start="110" class="cls-36" d="M1137.53,141.09c-109,8.5-160.06,43.25-265.81,83.76a302.1,302.1,0,0,1-70.31,17.64c-98,12.28-177.18-3.84-249.25-17.41-36.65-7-79.65-17.47-129.3-22.75-76.48-8.07-154.17-2.9-222.33,13.11C113.61,235.85,53.12,262.2,27,262.2" />
          <path data-start="120" class="cls-37" d="M1138.4,146.88c-110.83,9.27-163.11,34.74-268.82,74.85a323.19,323.19,0,0,1-70.22,18c-97,13.38-177.69.09-249.69-11.8-36.56-6.18-79.81-16.42-129.37-22.17-76.3-8.81-154.44-6-222.5,9.17-89.29,19.87-150,46.67-173.47,46.67" />
          <path data-start="130" class="cls-38" d="M1139.27,152.67c-112.63,10-166.16,26.23-271.84,65.93a347,347,0,0,1-70.12,18.28c-96,14.46-178.2,4-250.12-6.21-36.48-5.3-80-15.36-129.44-21.59C341.63,199.54,263,200,195.08,214.31c-91.68,19.3-152.52,46.6-173.42,46.6" />
          <path data-start="140" class="cls-39" d="M1140.14,158.47c-114.43,10.81-169.21,17.71-274.85,57a375.56,375.56,0,0,1-70,18.59c-95,15.55-178.71,7.94-250.57-.6-36.38-4.44-80.13-14.3-129.51-21-75.93-10.28-155-12.19-222.84,1.29C98.29,232.45,37.27,260.27,19,260.27" />
          <path data-start="150" class="cls-40" d="M1141,164.26c-116.23,11.58-172.26,9.19-277.87,48.09a409.45,409.45,0,0,1-69.92,18.92c-94.05,16.62-179.22,11.87-251,5-36.3-3.58-80.29-13.25-129.58-20.44-75.75-11-155.31-15.32-223-2.64C93.18,231.24,32,259.62,16.32,259.62" />
          <path data-start="160" class="cls-41" d="M1141.88,170.05c-118,12.35-175.3.68-280.88,39.18a456.39,456.39,0,0,1-69.83,19.24c-93.11,17.51-179.72,15.79-251.43,10.6-36.22-2.72-80.45-12.2-129.66-19.87-75.57-11.74-155.59-18.46-223.18-6.57C88.06,230,26.71,259,13.65,259" />
          <path data-start="170" class="cls-42" d="M1142.74,175.84C1022.92,189,964.4,168,858.86,206.1a507,507,0,0,1-69.73,19.56C697,244.27,608.89,245.38,537.25,241.87c-36.12-1.86-80.61-11.15-129.72-19.29C332.14,210.1,251.65,201,184.17,212.06,82.94,228.74,21.43,258.34,11,258.34" />
          <path data-start="180" class="cls-43" d="M1143.61,181.63C1022,195.53,962.22,165.28,856.71,203a573.18,573.18,0,0,1-69.63,19.88c-91.17,19.7-180.74,23.64-252.31,21.8-36-1-80.77-10.08-129.8-18.71-75.2-13.21-156.16-24.81-223.52-14.45C77.82,227.44,16.14,257.69,8.31,257.69" />
          <path data-start="190" class="cls-44" d="M1144.48,187.42C1021.06,202.09,960,162.56,854.57,199.85A655.78,655.78,0,0,1,785,220.06c-90.19,20.79-181.25,27.56-252.75,27.4-35.95-.12-80.93-9-129.86-18.14-75-13.94-156.45-28-223.7-18.38C72.7,226.11,10.86,257.05,5.64,257.05" />
          <path data-start="200" class="cls-45" d="M1145.35,193.21c-125.22,15.45-187.49-33.37-292.93,3.52-22.25,7.78-45.56,14.64-69.44,20.52-89.21,21.89-181.75,31.49-253.18,33-35.86.74-81.09-8-129.94-17.56C325,218,243.13,201.49,176,210.38c-108.41,14.35-170.41,46-173,46" />
          <path data-start="210" class="cls-3" d="M1146.22,199c-127,16.21-190.54-41.9-295.94-5.41s-232.43,55.4-323,59.46-243.23-56.76-354-43.24S.3,255.76.3,255.76" />
        </g>
        <line class="cls-46" x1="1114.31" y1="241.45" x2="1114.31" y2="241.45" />
        <path class="cls-47" d="M1110.27,241.2C1041.16,232.52,1050.2.49,999.7.49c-51.46,0-83.89,299.27-151.9,299.27S766.23,136.84,711.09,136.84,627.24,326,581.29,326,544.53,39.55,478.36,39.55,367.56,360.26,314.25,360.26s-78.51-241.38-130-241.38c-50.87,0-64,133.69-121.12,136.8" />
        <line class="cls-46" x1="61.13" y1="255.73" x2="61.13" y2="255.73" />
        <path class="cls-48" d="M1114.73,236.77h-.09" />
        <path class="cls-49" d="M1110.79,236.53c-66.76-8.26-59.62-226.34-109-223.26-24.6,1.53-44.9,69.75-66.63,138.51-23.2,73.58-48.48,147.35-83,145.82-65.5-2.92-79.3-158.31-132.59-160.36-27-1-47.57,42.65-67,87.62s-38.41,90.55-61.5,90.93c-46.17.77-40.52-270.37-105.94-272.38C446.53,42.22,413,146.89,382.87,231.92c-23,65-44.13,117.61-67.62,116-10-.7-19.11-9-27.69-22.24-37-56.89-63.7-201.08-105.32-198.71-7.26.44-13.72,3.29-19.6,7.75C127.27,161.43,113,247.59,64.08,249.91" />
        <path class="cls-50" d="M62.14,250h-.09" />
        <path class="cls-51" d="M1115.16,232.09H1115" />
        <path class="cls-52" d="M1111.31,231.86C1046.9,224.05,1052.09,19.93,1003.84,26,979.47,29.13,959.32,95.71,938,161c-22.72,69.91-47.56,137.49-81.42,134.4-62.92-5.74-77.08-153.73-128.48-157.8-26.39-2.09-46.66,38.15-65.77,80.87C643,261.33,624,304.88,600.84,305.64,554.46,307.17,556.53,51.18,491.9,47.27c-39.71-2.4-76.18,103.87-107.24,184.65-23.77,61.71-44.48,106.92-68.42,103.56-9.91-1.39-19.17-9.57-27.95-22.13-37.7-53.94-66.66-183.28-108.1-178.39a41.05,41.05,0,0,0-19.47,8.1C125.78,168.48,113.9,242.16,65,244.14" />
        <path class="cls-53" d="M63.16,244.18H63" />
        <path class="cls-54" d="M1115.58,227.41h-.29" />
        <path class="cls-55" d="M1111.83,227.19c-62.06-7.37-58.86-197.45-105.92-188.37-24.17,4.66-44.14,69.58-65.07,131.46-22.24,66.23-46.57,127.66-79.89,123C800.7,284.81,786.06,144.06,736.58,138c-25.85-3.16-45.63,33.7-64.51,74.12-19,40.63-38.17,82.2-61.45,83.34C564,297.79,562.5,56.85,498.67,51.13c-40.84-3.66-80.22,104.27-112.23,180.8-24.51,58.46-44.79,96.25-69.21,91.16C307.4,321,298,313,289,301.08c-38.39-51-69.63-165.39-110.87-158.08a48.42,48.42,0,0,0-19.36,8.45c-34.49,24.08-44,85.27-92.87,86.92" />
        <path class="cls-56" d="M64.18,238.4h-.29" />
        <path class="cls-57" d="M1116,222.73h-.39" />
        <path class="cls-58" d="M1112.35,222.52c-59.72-6.91-58.54-182.9-104.36-170.93-24,6.27-43.77,69.5-64.29,128-21.76,62.54-45.53,117.86-78.36,111.56-57.52-11-72.74-144.74-120.26-152.69-25.34-4.24-44.69,29.22-63.26,67.37-18.69,38.39-38.05,78-61.42,79.55C573.57,288.4,568.45,62.42,505.45,55c-42-5-84.27,104.67-117.22,176.94-25.26,55.21-45.09,85.65-70,78.77-9.75-2.7-19.29-10.61-28.46-21.9C250.69,240.74,217.16,141.31,176.1,151a59.12,59.12,0,0,0-19.24,8.8c-34.05,22.75-41.16,71.45-90,72.76" />
        <path class="cls-59" d="M65.19,232.62H64.8" />
        <path class="cls-60" d="M1116.43,218.05H1116" />
        <path class="cls-61" d="M1112.88,217.85c-57.39-6.43-58.24-168.28-102.82-153.48-23.82,7.9-43.38,69.41-63.51,124.42-21.28,58.87-44.42,108.13-76.83,100.15C815,275.45,799.11,148.6,753.58,138.8c-24.85-5.35-43.75,24.74-62,60.62-18.4,36.16-37.93,73.86-61.39,75.75-47,3.85-55.78-207.27-118-216.32-43.15-6.27-88.3,105.06-122.2,173.09-26,52-45.38,75.07-70.81,66.37-9.68-3.32-19.34-11.13-28.72-21.79C250.76,231.41,214.91,147,174.06,159.08a75,75,0,0,0-19.13,9.15c-33.61,21.41-38.34,57.62-87.17,58.6" />
        <path class="cls-62" d="M66.21,226.85h-.49" />
        <path class="cls-63" d="M1116.86,213.36h-.58" />
        <path class="cls-64" d="M1113.39,213.18c-55-6-57.94-153.58-101.26-136C988.47,86.72,969,146.42,949.4,198c-20.93,55.14-43.26,98.45-75.29,88.73-51.91-15.76-68.51-136-112-147.58-24.38-6.49-42.8,20.26-60.75,53.87C683.2,227,663.51,262.74,640,265c-47.27,4.61-59.62-191.71-121-202.31-44.31-7.64-92.34,105.46-127.18,169.23-26.75,48.72-45.68,64.55-71.61,54-9.6-3.91-19.39-11.65-29-21.67C250.85,222.08,212.67,152.6,172,167.12a104,104,0,0,0-19,9.51c-33.13,20.14-35.51,43.79-84.33,44.43" />
        <path class="cls-65" d="M67.22,221.07h-.58" />
        <path class="cls-66" d="M1117.28,208.68h-.68" />
        <path class="cls-67" d="M1113.91,208.51c-52.7-5.47-57.64-138.81-99.71-118.59-23.5,11.29-42.77,69.18-62,117.38-20.47,51.44-42.07,88.84-73.76,77.3-49-17.86-66.42-131.73-107.92-145-23.93-7.66-41.86,15.78-59.5,47.12-17.84,31.69-37.69,65.51-61.34,68.16-47.48,5.39-63.44-176.22-124-188.28-45.47-9.06-96.38,105.84-132.17,165.36-27.48,45.47-46,54.07-72.4,41.58C311.67,269,301.76,261.35,292,252c-41-39.23-81.52-93.71-122-76.8A160.64,160.64,0,0,0,151.08,185c-32.69,18.81-32.69,30-81.49,30.27" />
        <path class="cls-68" d="M68.24,215.29h-.68" />
        <path class="cls-69" d="M1117.7,204h-.77" />
        <path class="cls-70" d="M1114.42,203.84c-50.36-5-57.31-124-98.15-101.15-23.33,13-42.41,69.09-61.17,113.86-20,47.75-40.86,79.32-72.22,65.89C836.67,262.65,818.54,154.88,779.07,140c-23.48-8.86-40.92,11.3-58.25,40.37-17.56,29.47-37.57,61.33-61.31,64.37-47.7,6.15-67.27-160.81-127-174.27C485.9,59.92,432.11,176.68,395.38,232c-28.23,42.22-46.3,43.61-73.2,29.18-9.46-5.07-19.47-12.69-29.49-21.44-41.6-36.3-84.5-75.76-124.77-56.48-7.24,3.46-13.46,7.32-18.77,10.2-32.25,17.48-29.86,16.15-78.64,16.11" />
        <path class="cls-71" d="M69.25,209.52h-.77" />
        <path class="cls-72" d="M1118.13,199.32h-.87" />
        <path class="cls-73" d="M1114.94,199.17c-48-4.45-57-109.07-96.6-83.71-23.14,14.81-42.05,69-60.39,110.34-19.54,44.07-39.64,69.89-70.69,54.47-43.38-21.54-62.24-123.46-99.7-139.91-23-10.11-40,6.82-57,33.62-17.28,27.24-37.45,57.16-61.28,60.57C621.37,241.48,598.2,89.1,539.3,74.3,491.52,62.29,434.85,180.93,397.17,232c-29,39-46.64,33.2-74,16.79-9.4-5.64-19.52-13.22-29.76-21.33C251.23,194,206,169.61,165.88,191.25c-7.24,3.9-13.43,7.89-18.66,10.55-31.81,16.15-27,2.32-75.79,1.95" />
        <path class="cls-74" d="M70.27,203.74h-.88" />
        <path class="cls-75" d="M1118.55,194.64h-1" />
        <path class="cls-76" d="M1115.47,194.51c-45.71-3.92-56.6-94.13-95.06-66.27-22.94,16.61-41.69,68.9-59.61,106.82-19.08,40.37-38.45,60.54-69.15,43.05C851,255,831.5,158.65,796.06,140.75c-22.59-11.4-39.06,2.35-55.74,26.87-17,25-37.33,53-61.25,56.78-48.14,7.69-74.89-130.15-133-146.24C497.15,64.61,437.58,185.19,399,232c-29.72,35.72-47,22.8-74.79,4.39-9.35-6.19-19.55-13.75-30-21.21-42.75-30.47-90.42-39.84-130.32-15.85-7.23,4.35-13.39,8.47-18.54,10.9C113.92,225,121.08,198.69,72.34,198" />
        <path class="cls-77" d="M71.28,198h-1" />
        <path data-start="0" class="cls-78" d="M1119,190c-45.8,0-58.33-79.94-96.5-49-22.71,18.45-41.32,68.81-58.82,103.3C945,281,926.36,295.61,896,275.94c-37.88-24.58-58-115.52-91.47-134.79-22.13-12.75-38.13-2.14-54.49,20.11-16.75,22.79-37.21,48.81-61.22,53-48.36,8.47-78.68-114.89-136-132.22C502.79,66.88,440.31,189.45,400.74,232c-30.45,32.48-47.37,12.43-75.58-8-9.3-6.74-19.57-14.28-30.28-21.1-43.29-27.57-93.37-21.87-133.09,4.47-7.23,4.79-13.36,9-18.42,11.25-31.36,13.68-21.12-26.39-72.14-26.39" />
        <path data-start="10" class="cls-79" d="M1119.4,185.28c-43.28,0-57.78-65-94.85-31.49-22.45,20.29-40.95,68.7-58,99.77-18.15,33-36.21,42.17-66.09,20.22-35.25-25.91-55.85-111.66-87.37-132.24-21.63-14.13-37.21-6.61-53.23,13.36-16.49,20.56-37.09,44.64-61.2,49.19-48.58,9.23-82.45-99.68-139-118.21C508.45,69.12,443.12,193.78,402.53,232c-31.14,29.29-47.78,2.08-76.38-20.41a244.77,244.77,0,0,0-30.54-21c-43.82-24.7-96.32-3.89-135.87,24.79-7.22,5.24-13.32,9.62-18.3,11.61-30.92,12.32-18.23-40.57-69.29-40.57" />
        <path data-start="20" class="cls-80" d="M1119.83,180.6c-40.76,0-57.2-50-93.21-14-22.17,22.15-40.58,68.61-57.26,96.25-17.67,29.29-35.21,33.13-64.56,8.8-32.71-27.13-53.63-107.85-83.25-129.68-21.11-15.56-36.3-11.09-52,6.61-16.24,18.34-37,40.46-61.17,45.4-48.8,10-86.2-84.51-142-104.2C514.12,71.31,445.85,198.05,404.32,232c-31.89,26-48.21-8.26-77.18-32.8-9.23-7.82-19.61-15.35-30.79-20.86C252,156.45,197.08,192.4,157.7,223.41c-7.22,5.69-13.29,10.19-18.19,12-30.47,11-15.34-54.74-66.45-54.74" />
        <path data-start="30" class="cls-81" d="M1120.25,175.91c-38.24,0-56.58-35-91.56,3.43-21.86,24-40.2,68.5-56.48,92.73-17.19,25.58-34.32,24.17-63-2.63-30.28-28.27-51.36-104.1-79.14-127.12-20.55-17-35.41-15.57-50.73-.14-16,16.11-36.85,36.29-61.14,41.6-49,10.77-89.93-69.37-145-90.18C519.82,73.46,448.57,202.3,406.11,232c-32.64,22.8-48.67-18.59-78-45.2-9.2-8.36-19.63-15.91-31.05-20.75-44.85-19-102.21,32.07-141.43,65.42-7.21,6.13-13.25,10.77-18.07,12.31-30,9.6-12.45-68.9-63.6-68.9" />
        <path data-start="40" class="cls-82" d="M1120.67,171.23c-35.71,0-55.91-20-89.91,20.88-21.53,25.9-39.82,68.4-55.7,89.21-16.7,21.89-33.56,15.3-61.49-14s-49-100.39-75-124.57c-19.92-18.53-34.51-20.05-49.47-6.89C773.3,149.7,752.34,167.94,728,173.63c-49.24,11.54-93.64-54.26-148-76.17S451.29,206.56,407.89,232c-33.38,19.55-49.13-28.9-78.77-57.59-9.18-8.89-19.65-16.46-31.31-20.64-45.35-16.23-105.14,50.06-144.2,85.74-7.2,6.58-13.22,11.34-18,12.66-29.6,8.24-9.56-83.07-60.76-83.07" />
        <path data-start="50" class="cls-83" d="M1121.1,166.55c-33.2,0-55.22-5-88.27,38.34-21.17,27.78-39.42,68.29-54.92,85.68C961.7,308.76,945,297.06,918,265.11c-25.75-30.46-46.63-96.69-70.92-122-19.25-20.07-33.64-24.55-48.22-13.64-15.55,11.64-36.61,27.94-61.09,34-49.45,12.31-97.32-39.17-151-62.15C531.3,77.63,454,210.73,409.68,232c-34.17,16.24-49.63-39.21-79.57-70-9.17-9.43-19.66-17-31.57-20.53-45.85-13.46-108.06,68.05-147,106.06-7.19,7-13.18,11.91-17.83,13-29.16,6.88-6.67-97.24-57.91-97.24" />
        <path data-start="60" class="cls-84" d="M1121.52,161.87c-30.68,0-54.49,10-86.61,55.79-20.8,29.66-39,68.2-54.15,82.17-15.69,14.5-32.48-2.29-58.42-36.88-23.66-31.57-44.16-93-66.8-119.46-18.52-21.62-32.79-29.05-47-20.39-15.36,9.38-36.51,23.77-61.07,30.22-49.67,13.08-101-24.11-154-48.13C537.08,79.66,456.7,215,411.47,232c-34.91,13-50.15-49.52-80.36-82.38-9.17-10-19.69-17.6-31.83-20.41-46.37-10.73-111,86-149.76,126.38-7.18,7.47-13.15,12.48-17.72,13.35-28.72,5.52-3.78-111.4-55.06-111.4" />
        <path data-start="70" class="cls-85" d="M1122,157.19c-28.16,0-53.74,24.95-85,73.25-20.4,31.53-38.6,68.11-53.37,78.64-15.16,10.82-32.17-11-56.88-48.3-21.68-32.7-41.63-89.31-62.7-116.9-17.71-23.19-31.93-33.59-45.7-27.14-15.17,7.09-36.39,19.59-61,26.42-49.89,13.85-104.62-9.06-157-34.11-57.35-27.41-140.8,110.19-187,122.94-35.65,9.75-50.67-59.83-81.15-94.78-9.16-10.5-19.7-18.17-32.09-20.29-46.88-8-113.91,104-152.53,146.7-7.17,7.92-13.12,13.05-17.61,13.7-28.28,4.14-.88-125.57-52.22-125.57" />
        <path data-start="80" class="cls-86" d="M1122.37,152.51c-25.64,0-52.95,39.91-83.32,90.7-20,33.41-38.16,68.06-52.58,75.12-14.63,7.17-32-19.78-55.36-59.71-19.79-33.89-39-85.6-58.58-114.35-16.85-24.76-31.09-38.15-44.45-33.89-15,4.77-36.27,15.42-61,22.63C717,147.63,658.83,139,607,112.91,548.73,83.6,462.17,223.49,415,232c-36.4,6.49-51.21-70.14-82-107.18-9.16-11-19.73-18.76-32.35-20.18-47.42-5.32-116.74,122.08-155.31,167-7.14,8.38-13.08,13.61-17.49,14.06C100.1,288.43,130,146,78.57,146" />
        <path data-start="90" class="cls-87" d="M1122.8,147.83c-23.12,0-52.16,54.87-81.68,108.16-19.55,35.28-37.72,68-51.8,71.6s-32-28.56-53.82-71.14c-18-35.15-36.38-81.86-54.47-111.79-15.93-26.33-30.24-42.76-43.2-40.64-14.8,2.41-36.15,11.25-61,18.83-50.34,15.39-111.83,21-163.07-6.08C554.61,85.51,464.9,227.75,416.83,232c-37.14,3.25-51.77-80.44-82.75-119.57-9.16-11.57-19.75-19.35-32.61-20.06-48-2.66-119.68,140-158.08,187.33-7.14,8.82-13,14.18-17.37,14.41-27.41,1.35,4.89-153.92-46.53-153.92" />
        <path data-start="100" class="cls-88" d="M1123.22,143.14c-34.31,0-96.74,193.7-131.05,193.7S891.69,97.66,847.58,97.66s-151.35,64.86-227,23C560.52,87.39,467.63,232,418.62,232S359.8,80.09,302.2,80.09,151.05,302.5,124.09,302.5s7.78-168.08-43.68-168.08" />
      </g>
    </g>
  </g>
</svg>